<svg width="30" height="31" viewBox="0 0 30 31" fill="none" xmlns="http://www.w3.org/2000/svg">
<g clip-path="url(#clip0_1095_1272)">
<path d="M15.8333 1.75C15.8333 1.05917 15.2733 0.5 14.5833 0.5C13.8925 0.5 13.3333 1.05917 13.3333 1.75V9.66667C13.3333 10.1267 12.96 10.5 12.5 10.5C12.04 10.5 11.6667 10.1267 11.6667 9.66667V1.75C11.6667 1.05917 11.1075 0.5 10.4167 0.5C9.72583 0.5 9.16667 1.05917 9.16667 1.75V9.66667C9.16667 10.1267 8.79333 10.5 8.33333 10.5C7.87333 10.5 7.5 10.1267 7.5 9.66667V1.75C7.5 1.05917 6.94083 0.5 6.25 0.5C5.55917 0.5 5 1.05917 5 1.75V9.25C5 9.35583 5.0175 9.4575 5.0425 9.55583C5.0175 9.72833 5 9.90333 5 10.0833C5 12.0133 6.45833 15.0475 8.33333 15.4517V28.4167C8.33333 29.5675 9.26583 30.5 10.4167 30.5C11.5675 30.5 12.5 29.5675 12.5 28.4167V15.4517C14.375 15.0475 15.8333 12.0133 15.8333 10.0833C15.8333 9.90333 15.8158 9.72833 15.7908 9.55583C15.8158 9.4575 15.8333 9.35583 15.8333 9.25V1.75ZM22.9167 0.5C22.83 0.5 22.7467 0.515833 22.6617 0.525833C22.6083 0.5175 22.5558 0.5 22.5 0.5C20.6592 0.5 18.3333 5.06417 18.3333 9.66667C18.3333 13.5483 19.3958 16.8 20.8333 17.7267V28.4167C20.8333 29.5675 21.7658 30.5 22.9167 30.5C24.0675 30.5 25 29.5675 25 28.4167V2.58333C25 1.4325 24.0675 0.5 22.9167 0.5Z" fill="#99AAB5"/>
</g>
<defs>
<clipPath id="clip0_1095_1272">
<rect width="30" height="30" fill="white" transform="translate(0 0.5)"/>
</clipPath>
</defs>
</svg>
