<svg width="30" height="31" viewBox="0 0 30 31" fill="none" xmlns="http://www.w3.org/2000/svg">
<g clip-path="url(#clip0_1095_1322)">
<path d="M15 30.5C23.2843 30.5 30 23.7843 30 15.5C30 7.21573 23.2843 0.5 15 0.5C6.71573 0.5 0 7.21573 0 15.5C0 23.7843 6.71573 30.5 15 30.5Z" fill="#88C9F9"/>
<path d="M25.1087 20.29C24.2612 19.965 24.412 20.0833 23.8895 18.9725C23.367 17.8625 23.0504 17.505 21.8754 17.375C20.6995 17.2458 20.7437 17.3375 20.417 16.75C20.0904 16.1617 18.7654 16.9092 17.917 17.2367C17.0662 17.5633 17.2762 18.275 17.0145 18.2083C16.752 18.1433 16.092 17.9742 15.437 17.4525C14.7837 16.9292 15.9229 16.5208 16.2504 16.195C16.5779 15.8675 15.6337 16.0458 15.3062 15.8483C14.9787 15.6533 14.3929 16.2408 13.8704 15.7167C13.347 15.1942 13.6745 14.41 13.6095 13.7567C13.5437 13.1025 14.4579 12.9725 15.0462 12.8417C15.6337 12.7117 16.0904 12.8425 16.0904 13.6258C16.0904 14.41 16.8095 14.6717 16.6137 13.7558C16.4179 12.84 16.8095 12.58 17.072 12.1225C17.3329 11.665 17.7904 11.0108 18.3779 10.0308C18.9662 9.05084 19.3587 9.50751 20.077 9.57751C20.7962 9.64834 20.992 9.50834 21.5145 9.57417C22.0354 9.64001 21.5145 8.92084 21.7112 8.20251C21.9062 7.48417 22.6254 7.61417 23.3454 7.81084C24.0637 8.00667 22.6254 6.89501 22.3645 6.30751C22.102 5.71917 21.3837 6.30751 20.9279 5.32751C20.467 4.34751 19.8245 3.71334 19.2362 3.62584C18.6479 3.53751 19.4237 4.87084 18.9662 5.58917C18.507 6.30751 17.8037 6.19501 17.0829 6.19501C16.3654 6.19501 15.6987 5.58917 16.222 4.67417C16.7437 3.76001 17.7412 3.85417 18.2637 3.07001C18.787 2.28667 16.4054 2.35834 15.5554 2.09751C14.7054 1.83584 13.6854 1.83834 12.8362 2.49167C11.9862 3.14417 10.1687 3.34834 9.44954 3.60917C8.73121 3.87001 8.60204 3.17584 8.47204 2.65251C8.41371 2.42001 8.14871 2.34667 7.77538 2.35501C5.92538 3.37501 4.32288 4.78167 3.05371 6.45584C3.25121 7.12834 4.20788 6.29834 4.39538 6.11084C4.59121 5.91501 5.57121 6.17667 5.70121 6.89501C5.83204 7.61334 5.76704 8.39917 5.50621 9.05251C5.24454 9.70501 6.15954 10.62 6.68204 11.535C7.20538 12.4508 7.79288 12.45 8.05454 12.45C8.31538 12.45 9.81871 13.0383 9.75288 13.7567C9.68788 14.4758 11.1254 15.1283 11.7137 15.5858C12.302 16.045 12.6737 16.4958 13.437 16.6275C14.2012 16.7592 15.0945 18.0083 15.4862 18.14C15.787 18.24 16.2962 18.7208 16.6037 18.87C16.1995 19.3817 15.417 20.4325 15.417 20.9167C15.417 21.5717 16.2712 22.6008 16.5979 22.8617C16.9237 23.1217 17.862 23.32 18.0562 23.9725C18.2529 24.6258 17.9195 26.825 17.3329 27.4125C16.7429 28 16.5287 29.3892 16.5287 29.3892C16.5287 29.3892 16.7362 29.84 17.4312 29.3892C18.1995 28.8917 19.4862 27.475 20.0004 27.1667C20.9804 26.5775 21.9329 25.8625 22.8479 25.0142C23.7629 24.165 23.4312 23.57 23.8895 22.7225C24.347 21.8733 24.9387 21.9117 25.722 21.195C26.507 20.475 25.9587 20.6175 25.1087 20.29Z" fill="#5C913B"/>
</g>
<defs>
<clipPath id="clip0_1095_1322">
<rect width="30" height="30" fill="white" transform="translate(0 0.5)"/>
</clipPath>
</defs>
</svg>
