<svg width="25" height="24" viewBox="0 0 25 24" fill="none" xmlns="http://www.w3.org/2000/svg">
<path d="M5.5 14.0585C5.5 13.0494 5.5 12.5448 5.72166 12.1141C5.94333 11.6833 6.3539 11.3901 7.17505 10.8035L11.3375 7.83034C11.8989 7.42938 12.1795 7.2289 12.5 7.2289C12.8205 7.2289 13.1011 7.42938 13.6625 7.83034L17.825 10.8035C18.6461 11.3901 19.0567 11.6833 19.2783 12.1141C19.5 12.5448 19.5 13.0494 19.5 14.0585V19C19.5 19.9428 19.5 20.4142 19.2071 20.7071C18.9142 21 18.4428 21 17.5 21H7.5C6.55719 21 6.08579 21 5.79289 20.7071C5.5 20.4142 5.5 19.9428 5.5 19V14.0585Z" fill="#3C66FC"/>
<path d="M3.5 12.3866C3.5 12.6535 3.5 12.7869 3.5841 12.8281C3.66819 12.8692 3.77352 12.7873 3.98418 12.6234L11.2721 6.95502C11.862 6.49625 12.1569 6.26686 12.5 6.26686C12.8431 6.26686 13.138 6.49625 13.7279 6.95502L21.0158 12.6234C21.2265 12.7873 21.3318 12.8692 21.4159 12.8281C21.5 12.7869 21.5 12.6535 21.5 12.3866V11.9782C21.5 11.4978 21.5 11.2576 21.3983 11.0497C21.2966 10.8418 21.107 10.6944 20.7279 10.3995L13.7279 4.95502C13.138 4.49625 12.8431 4.26686 12.5 4.26686C12.1569 4.26686 11.862 4.49625 11.2721 4.95502L4.27212 10.3995C3.89295 10.6944 3.70337 10.8418 3.60168 11.0497C3.5 11.2576 3.5 11.4978 3.5 11.9782V12.3866Z" fill="black"/>
<path d="M13 15H12C10.8954 15 10 15.8954 10 17V20.85C10 20.9328 10.0672 21 10.15 21H14.85C14.9328 21 15 20.9328 15 20.85V17C15 15.8954 14.1046 15 13 15Z" fill="white"/>
<rect x="16.5" y="5" width="2" height="4" rx="0.5" fill="black"/>
</svg>
