<svg width="65" height="32" viewBox="0 0 65 32" fill="none" xmlns="http://www.w3.org/2000/svg">
<path d="M25.5 18.0585C25.5 17.0494 25.5 16.5448 25.7217 16.1141C25.9433 15.6833 26.3539 15.3901 27.175 14.8035L31.3375 11.8303C31.8989 11.4294 32.1795 11.2289 32.5 11.2289C32.8205 11.2289 33.1011 11.4294 33.6625 11.8303L37.825 14.8035C38.6461 15.3901 39.0567 15.6833 39.2783 16.1141C39.5 16.5448 39.5 17.0494 39.5 18.0585V23C39.5 23.9428 39.5 24.4142 39.2071 24.7071C38.9142 25 38.4428 25 37.5 25H27.5C26.5572 25 26.0858 25 25.7929 24.7071C25.5 24.4142 25.5 23.9428 25.5 23V18.0585Z" fill="#3C66FC"/>
<path d="M23.5 16.3866C23.5 16.6535 23.5 16.7869 23.5841 16.8281C23.6682 16.8692 23.7735 16.7873 23.9842 16.6234L31.2721 10.955C31.862 10.4962 32.1569 10.2669 32.5 10.2669C32.8431 10.2669 33.138 10.4962 33.7279 10.955L41.0158 16.6234C41.2265 16.7873 41.3318 16.8692 41.4159 16.8281C41.5 16.7869 41.5 16.6535 41.5 16.3866V15.9782C41.5 15.4978 41.5 15.2576 41.3983 15.0497C41.2966 14.8418 41.107 14.6944 40.7279 14.3995L33.7279 8.95502C33.138 8.49625 32.8431 8.26686 32.5 8.26686C32.1569 8.26686 31.862 8.49625 31.2721 8.95502L24.2721 14.3995C23.893 14.6944 23.7034 14.8418 23.6017 15.0497C23.5 15.2576 23.5 15.4978 23.5 15.9782V16.3866Z" fill="black"/>
<path d="M33 19H32C30.8954 19 30 19.8954 30 21V24.85C30 24.9328 30.0672 25 30.15 25H34.85C34.9328 25 35 24.9328 35 24.85V21C35 19.8954 34.1046 19 33 19Z" fill="white"/>
<rect x="36.5" y="9" width="2" height="4" rx="0.5" fill="black"/>
</svg>
