<svg width="65" height="32" viewBox="0 0 65 32" fill="none" xmlns="http://www.w3.org/2000/svg">
<ellipse cx="36.6252" cy="11.5832" rx="6.82144" ry="6.58318" fill="black"/>
<path d="M34.3646 14.4117C35.9843 14.8394 36.531 16.8554 35.336 17.994L28.4882 24.5188C27.3215 25.6305 25.3601 25.0694 24.9352 23.5023L22.5012 14.5262C22.0763 12.9592 23.5014 11.5428 25.0829 11.9604L34.3646 14.4117Z" fill="#3C66FC"/>
<mask id="mask0_1194_2449" style="mask-type:alpha" maskUnits="userSpaceOnUse" x="29" y="5" width="15" height="14">
<ellipse cx="36.6261" cy="11.5832" rx="6.82144" ry="6.58318" fill="#0C3EEF"/>
</mask>
<g mask="url(#mask0_1194_2449)">
<g filter="url(#filter0_d_1194_2449)">
<path d="M34.3656 14.4112C35.9853 14.839 36.5319 16.8549 35.337 17.9935L28.4892 24.5183C27.3225 25.63 25.3611 25.0689 24.9362 23.5018L22.5022 14.5257C22.0773 12.9587 23.5024 11.5423 25.0838 11.9599L34.3656 14.4112Z" fill="white"/>
</g>
</g>
<defs>
<filter id="filter0_d_1194_2449" x="22.4258" y="7.45625" width="19.1673" height="18.5293" filterUnits="userSpaceOnUse" color-interpolation-filters="sRGB">
<feFlood flood-opacity="0" result="BackgroundImageFix"/>
<feColorMatrix in="SourceAlpha" type="matrix" values="0 0 0 0 0 0 0 0 0 0 0 0 0 0 0 0 0 0 127 0" result="hardAlpha"/>
<feOffset dx="2.953" dy="-1.7718"/>
<feGaussianBlur stdDeviation="1.32885"/>
<feComposite in2="hardAlpha" operator="out"/>
<feColorMatrix type="matrix" values="0 0 0 0 0 0 0 0 0 0.130363 0 0 0 0 0.461445 0 0 0 0.4 0"/>
<feBlend mode="normal" in2="BackgroundImageFix" result="effect1_dropShadow_1194_2449"/>
<feBlend mode="normal" in="SourceGraphic" in2="effect1_dropShadow_1194_2449" result="shape"/>
</filter>
</defs>
</svg>
