<svg width="30" height="31" viewBox="0 0 30 31" fill="none" xmlns="http://www.w3.org/2000/svg">
<g clip-path="url(#clip0_1095_1257)">
<path d="M28.3333 13H25.5317C25.2617 11.8592 24.8117 10.7908 24.2133 9.82167L26.1958 7.83917C26.8467 7.18833 26.8467 6.1325 26.1958 5.48167L25.0175 4.30333C24.3667 3.6525 23.3117 3.6525 22.6608 4.30333L20.6783 6.28583C19.7083 5.6875 18.6408 5.23833 17.5 4.96833V2.16667C17.5 1.24667 16.7533 0.5 15.8333 0.5H14.1667C13.2467 0.5 12.5 1.24667 12.5 2.16667V4.96833C11.3592 5.23833 10.2908 5.68833 9.32167 6.28667L7.34 4.30417C6.68917 3.65333 5.63333 3.65333 4.98333 4.30417L3.80417 5.4825C3.15333 6.13333 3.15333 7.18917 3.80333 7.84L5.78583 9.8225C5.1875 10.7917 4.73833 11.86 4.46833 13H1.66667C0.746667 13 0 13.7467 0 14.6667V16.3333C0 17.2533 0.746667 18 1.66667 18H4.46833C4.73833 19.14 5.18833 20.2083 5.78667 21.1775L3.80417 23.16C3.15417 23.81 3.15417 24.8667 3.805 25.5175L4.98333 26.6958C5.63333 27.3458 6.68917 27.3458 7.34 26.6958L9.3225 24.7133C10.2917 25.3125 11.36 25.7617 12.5008 26.0317V28.8333C12.5008 29.7533 13.2475 30.5 14.1675 30.5H15.8342C16.7542 30.5 17.5008 29.7533 17.5008 28.8333V26.0317C18.6408 25.7617 19.7092 25.3117 20.6783 24.7133L22.6608 26.6958C23.3117 27.3467 24.3667 27.3467 25.0175 26.6958L26.1958 25.5175C26.8467 24.8667 26.8467 23.8108 26.1958 23.16L24.2133 21.1775C24.8125 20.2083 25.2617 19.14 25.5317 17.9992H28.3333C29.2533 17.9992 30 17.2525 30 16.3325V14.6658C30 13.7467 29.2533 13 28.3333 13ZM15 22.1667C11.3183 22.1667 8.33333 19.1817 8.33333 15.5C8.33333 11.8183 11.3183 8.83333 15 8.83333C18.6817 8.83333 21.6667 11.8183 21.6667 15.5C21.6667 19.1817 18.6817 22.1667 15 22.1667Z" fill="#66757F"/>
</g>
<defs>
<clipPath id="clip0_1095_1257">
<rect width="30" height="30" fill="white" transform="translate(0 0.5)"/>
</clipPath>
</defs>
</svg>
