<svg width="30" height="31" viewBox="0 0 30 31" fill="none" xmlns="http://www.w3.org/2000/svg">
<g clip-path="url(#clip0_1095_1290)">
<path d="M24.1471 14.2433L24.1563 14.2383C22.9346 14.7883 21.5713 14.9008 20.2596 14.5483C18.9046 14.185 17.7546 13.3625 16.9705 12.2183C16.9863 12.2416 16.9988 12.2666 17.0155 12.29L15.833 12.1666L15.6555 13.2516C16.5046 14.4541 17.6771 15.3641 19.0463 15.8966L18.9763 16.1558C18.6363 17.4233 18.7471 18.9025 18.8646 20.4691C19.018 22.5108 19.1771 24.6225 18.3105 26.2466C17.4955 27.7708 15.8763 28.6791 13.973 28.6791H13.9463C12.1721 28.6708 10.5605 27.8625 9.93548 26.6666C9.48715 25.8083 9.43798 24.6408 9.38548 23.4066C9.30131 21.4125 9.20715 19.1533 7.49548 17.2041L4.20465 13.4533L2.95215 14.5525L6.24298 18.3025C7.56632 19.8116 7.64465 21.6741 7.72048 23.4766C7.77798 24.84 7.83715 26.25 8.45798 27.4383C9.37548 29.1933 11.5263 30.335 13.9388 30.3458H13.9738C16.503 30.3458 18.6721 29.1091 19.7805 27.0316C20.8755 24.9808 20.6905 22.5175 20.5263 20.3441C20.4196 18.9241 20.3188 17.5816 20.5855 16.5891L20.6563 16.3241C21.0321 16.3816 21.408 16.4183 21.783 16.4183C22.8263 16.4175 23.8555 16.1875 24.8196 15.7558L24.9996 14.6666L24.1471 14.2433Z" fill="#31373D"/>
<path d="M1.04854 16.2226C-0.165622 14.8392 -0.0281221 12.7326 1.35521 11.5184C2.73854 10.3042 4.84521 10.4417 6.05938 11.8251C7.27354 13.2092 7.13604 15.3151 5.75271 16.5292C4.36938 17.7434 2.26271 17.6067 1.04854 16.2226Z" fill="#99AAB5"/>
<path d="M2.30178 15.1233C1.69428 14.4316 1.76345 13.3783 2.45512 12.7716C3.14678 12.1641 4.20012 12.2333 4.80678 12.925C5.41428 13.6166 5.34512 14.67 4.65345 15.2766C3.96178 15.8841 2.90845 15.815 2.30178 15.1233Z" fill="#31373D"/>
<path d="M24.8262 15.765L24.1479 14.2433C25.7612 13.5225 26.9496 12.1317 27.4071 10.4275L28.0554 8.01334C28.2937 7.12584 27.7654 6.21001 26.8779 5.97084L27.3112 4.36084C29.0862 4.83834 30.1421 6.67001 29.6654 8.44501L29.0171 10.8592C28.4279 13.0508 26.9004 14.8383 24.8262 15.765ZM15.6546 13.2533C14.3587 11.4225 13.9487 9.13168 14.5296 6.96834L15.1779 4.55418C15.6546 2.77834 17.4871 1.72251 19.2612 2.19918L18.8287 3.80918C17.9396 3.57084 17.0254 4.09918 16.7871 4.98668L16.1387 7.40168C15.6862 9.08418 16.0054 10.8667 17.0146 12.2908L15.6546 13.2533Z" fill="#99AAB5"/>
<path d="M18.7997 5.52664C18.133 5.34748 17.738 4.66164 17.9172 3.99498L18.5655 1.58081C18.7447 0.914142 19.4305 0.519142 20.0972 0.698309C20.7638 0.877476 21.1588 1.56331 20.9797 2.22998L20.3313 4.64414C20.1522 5.31081 19.4663 5.70581 18.7997 5.52664ZM26.043 7.47248C25.3763 7.29331 24.9813 6.60748 25.1605 5.94081L25.8088 3.52664C25.988 2.85998 26.6738 2.46498 27.3405 2.64414C28.0072 2.82331 28.4022 3.50914 28.2238 4.17581L27.5755 6.58998C27.3955 7.25664 26.7097 7.65164 26.043 7.47248Z" fill="#31373D"/>
</g>
<defs>
<clipPath id="clip0_1095_1290">
<rect width="30" height="30" fill="white" transform="translate(0 0.5)"/>
</clipPath>
</defs>
</svg>
