<svg width="25" height="24" viewBox="0 0 25 24" fill="none" xmlns="http://www.w3.org/2000/svg">
<path fill-rule="evenodd" clip-rule="evenodd" d="M14.6361 3.36144C14.5928 2.92777 14.5711 2.71093 14.4838 2.54161C14.3728 2.32656 14.1877 2.15902 13.9627 2.07005C13.7855 2 13.5676 2 13.1318 2H11.8681C11.4324 2 11.2145 2 11.0374 2.07001C10.8123 2.15898 10.6271 2.32658 10.5162 2.5417C10.4289 2.71098 10.4072 2.92776 10.3639 3.36131C10.2818 4.18195 10.2408 4.59227 10.0691 4.81742C9.85113 5.10319 9.49661 5.25003 9.14044 5.20207C8.85982 5.16427 8.54061 4.9031 7.9022 4.38076C7.56481 4.10472 7.39612 3.9667 7.21463 3.90872C6.98414 3.8351 6.73478 3.84753 6.51277 3.94373C6.33795 4.01947 6.18385 4.17357 5.87565 4.48177L4.98233 5.37509C4.67403 5.68339 4.51988 5.83754 4.44413 6.01243C4.348 6.23438 4.33557 6.48364 4.40914 6.71405C4.46711 6.89561 4.60516 7.06435 4.88128 7.40182C5.40385 8.04052 5.66514 8.35987 5.70287 8.64066C5.7507 8.99664 5.60395 9.35092 5.31842 9.56881C5.09319 9.74068 4.68264 9.78173 3.86155 9.86384C3.42777 9.90722 3.21088 9.92891 3.04152 10.0163C2.82654 10.1272 2.65905 10.3123 2.57008 10.5372C2.5 10.7144 2.5 10.9324 2.5 11.3683V12.6318C2.5 13.0676 2.5 13.2855 2.57005 13.4627C2.65902 13.6877 2.82656 13.8728 3.04161 13.9838C3.21093 14.0711 3.42776 14.0928 3.86143 14.1361C4.6823 14.2182 5.09273 14.2593 5.31792 14.4311C5.60357 14.649 5.75037 15.0034 5.70247 15.3594C5.66471 15.6402 5.40351 15.9594 4.8811 16.5979C4.60511 16.9352 4.46711 17.1039 4.40913 17.2854C4.3355 17.5159 4.34794 17.7652 4.44414 17.9873C4.51988 18.1621 4.67398 18.3162 4.98217 18.6243L5.87561 19.5178C6.1838 19.826 6.3379 19.9801 6.51272 20.0558C6.73474 20.152 6.9841 20.1645 7.21458 20.0908C7.39607 20.0329 7.56474 19.8949 7.90208 19.6189C8.54059 19.0964 8.85985 18.8352 9.14057 18.7975C9.49663 18.7496 9.85101 18.8964 10.0689 19.182C10.2407 19.4072 10.2818 19.8176 10.3639 20.6385C10.4072 21.0722 10.4289 21.2891 10.5162 21.4584C10.6272 21.6734 10.8123 21.841 11.0373 21.9299C11.2145 22 11.4324 22 11.8682 22H13.1316C13.5676 22 13.7856 22 13.9628 21.9299C14.1877 21.8409 14.3728 21.6735 14.4837 21.4585C14.5711 21.2891 14.5928 21.0722 14.6362 20.6383C14.7183 19.8173 14.7593 19.4068 14.9311 19.1816C15.149 18.896 15.5034 18.7492 15.8595 18.7971C16.1402 18.8348 16.4594 19.096 17.0979 19.6184C17.4352 19.8944 17.6039 20.0324 17.7854 20.0904C18.0159 20.164 18.2652 20.1516 18.4873 20.0554C18.6621 19.9796 18.8162 19.8255 19.1243 19.5174L20.0179 18.6238C20.326 18.3157 20.48 18.1617 20.5558 17.9869C20.652 17.7648 20.6645 17.5154 20.5908 17.2848C20.5328 17.1034 20.3949 16.9348 20.119 16.5976C19.5968 15.9593 19.3357 15.6402 19.2979 15.3596C19.2499 15.0034 19.3967 14.6489 19.6825 14.4309C19.9077 14.2592 20.318 14.2182 21.1386 14.1361C21.5722 14.0928 21.789 14.0711 21.9583 13.9838C22.1734 13.8729 22.341 13.6877 22.43 13.4626C22.5 13.2855 22.5 13.0676 22.5 12.6319V11.3682C22.5 10.9324 22.5 10.7145 22.4299 10.5373C22.341 10.3123 22.1734 10.1272 21.9584 10.0162C21.7891 9.92891 21.5722 9.90722 21.1385 9.86385C20.3176 9.78176 19.9072 9.74072 19.682 9.56893C19.3964 9.35102 19.2496 8.99662 19.2975 8.64056C19.3352 8.35984 19.5964 8.0406 20.1188 7.4021C20.3948 7.06478 20.5328 6.89612 20.5908 6.71464C20.6644 6.48415 20.652 6.23478 20.5558 6.01275C20.48 5.83794 20.3259 5.68385 20.0178 5.37567L19.1243 4.4822C18.8161 4.17402 18.662 4.01994 18.4872 3.94419C18.2652 3.84798 18.0158 3.83555 17.7853 3.90918C17.6038 3.96716 17.4352 4.10515 17.0979 4.38113C16.4594 4.90352 16.1402 5.16472 15.8595 5.20248C15.5034 5.25038 15.149 5.10358 14.9311 4.81793C14.7593 4.59274 14.7182 4.1823 14.6361 3.36144Z" fill="#3C66FC"/>
<circle cx="12.5" cy="12" r="3" fill="white"/>
</svg>
