<svg width="30" height="31" viewBox="0 0 30 31" fill="none" xmlns="http://www.w3.org/2000/svg">
<path d="M7.78646 12.7516H6.11979C5.88979 12.7516 5.70312 12.565 5.70312 12.335V6.50163C5.70312 6.27163 5.88979 6.08496 6.11979 6.08496H7.78646C8.01646 6.08496 8.20312 6.27163 8.20312 6.50163V12.335C8.20312 12.565 8.01646 12.7516 7.78646 12.7516Z" fill="#A0041E"/>
<path d="M4.16699 13.8333L15.0003 3L25.8337 13.8333V28H4.16699V13.8333Z" fill="#FFE8B6"/>
<path d="M15 13.8334H15.8333V27.1667H15V13.8334Z" fill="#FFCC4D"/>
<path d="M25.8332 14.6667C25.6199 14.6667 25.4065 14.585 25.244 14.4225L14.9999 4.17838L4.75572 14.4225C4.42988 14.7484 3.90322 14.7484 3.57738 14.4225C3.25155 14.0967 3.25155 13.57 3.57738 13.2442L14.4107 2.41088C14.7365 2.08505 15.2632 2.08505 15.589 2.41088L26.4224 13.2442C26.7482 13.57 26.7482 14.0967 26.4224 14.4225C26.2599 14.585 26.0465 14.6667 25.8332 14.6667Z" fill="#66757F"/>
<path d="M14.9996 14.6667C14.7862 14.6667 14.5729 14.585 14.4104 14.4225C14.0846 14.0967 14.0846 13.57 14.4104 13.2442L19.8271 7.8275C20.1529 7.50167 20.6796 7.50167 21.0054 7.8275C21.3312 8.15334 21.3312 8.68 21.0054 9.00584L15.5887 14.4225C15.4262 14.585 15.2129 14.6667 14.9996 14.6667Z" fill="#66757F"/>
<path d="M8.33301 22.1666H11.6663V27.1666H8.33301V22.1666Z" fill="#C1694F"/>
<path d="M8.33301 14.6666H11.6663V18H8.33301V14.6666ZM18.7497 14.6666H22.083V18H18.7497V14.6666ZM18.7497 22.1666H22.083V25.5H18.7497V22.1666Z" fill="#55ACEE"/>
<path d="M27.9163 28.4166C27.9163 29.1066 27.3563 29.6666 26.6663 29.6666H3.33301C2.64301 29.6666 2.08301 29.1066 2.08301 28.4166C2.08301 27.7266 2.64301 27.1666 3.33301 27.1666H26.6663C27.3563 27.1666 27.9163 27.7266 27.9163 28.4166Z" fill="#5C913B"/>
</svg>
