<svg width="65" height="32" viewBox="0 0 65 32" fill="none" xmlns="http://www.w3.org/2000/svg">
<path fill-rule="evenodd" clip-rule="evenodd" d="M34.6361 7.36144C34.5928 6.92777 34.5711 6.71093 34.4838 6.54161C34.3728 6.32656 34.1877 6.15902 33.9627 6.07005C33.7855 6 33.5676 6 33.1318 6H31.8681C31.4324 6 31.2145 6 31.0374 6.07001C30.8123 6.15898 30.6271 6.32658 30.5162 6.5417C30.4289 6.71098 30.4072 6.92776 30.3639 7.36131C30.2818 8.18195 30.2408 8.59227 30.0691 8.81742C29.8511 9.10319 29.4966 9.25003 29.1404 9.20207C28.8598 9.16427 28.5406 8.9031 27.9022 8.38076C27.5648 8.10472 27.3961 7.9667 27.2146 7.90872C26.9841 7.8351 26.7348 7.84753 26.5128 7.94373C26.3379 8.01947 26.1839 8.17357 25.8757 8.48177L24.9823 9.37509C24.674 9.68339 24.5199 9.83754 24.4441 10.0124C24.348 10.2344 24.3356 10.4836 24.4091 10.7141C24.4671 10.8956 24.6052 11.0643 24.8813 11.4018C25.4039 12.0405 25.6651 12.3599 25.7029 12.6407C25.7507 12.9966 25.604 13.3509 25.3184 13.5688C25.0932 13.7407 24.6826 13.7817 23.8616 13.8638C23.4278 13.9072 23.2109 13.9289 23.0415 14.0163C22.8265 14.1272 22.659 14.3123 22.5701 14.5372C22.5 14.7144 22.5 14.9324 22.5 15.3683V16.6318C22.5 17.0676 22.5 17.2855 22.57 17.4627C22.659 17.6877 22.8266 17.8728 23.0416 17.9838C23.2109 18.0711 23.4278 18.0928 23.8614 18.1361C24.6823 18.2182 25.0927 18.2593 25.3179 18.4311C25.6036 18.649 25.7504 19.0034 25.7025 19.3594C25.6647 19.6402 25.4035 19.9594 24.8811 20.5979C24.6051 20.9352 24.4671 21.1039 24.4091 21.2854C24.3355 21.5159 24.3479 21.7652 24.4441 21.9873C24.5199 22.1621 24.674 22.3162 24.9822 22.6243L25.8756 23.5178C26.1838 23.826 26.3379 23.9801 26.5127 24.0558C26.7347 24.152 26.9841 24.1645 27.2146 24.0908C27.3961 24.0329 27.5647 23.8949 27.9021 23.6189C28.5406 23.0964 28.8599 22.8352 29.1406 22.7975C29.4966 22.7496 29.851 22.8964 30.0689 23.182C30.2407 23.4072 30.2818 23.8176 30.3639 24.6385C30.4072 25.0722 30.4289 25.2891 30.5162 25.4584C30.6272 25.6734 30.8123 25.841 31.0373 25.9299C31.2145 26 31.4324 26 31.8682 26H33.1316C33.5676 26 33.7856 26 33.9628 25.9299C34.1877 25.8409 34.3728 25.6735 34.4837 25.4585C34.5711 25.2891 34.5928 25.0722 34.6362 24.6383C34.7183 23.8173 34.7593 23.4068 34.9311 23.1816C35.149 22.896 35.5034 22.7492 35.8595 22.7971C36.1402 22.8348 36.4594 23.096 37.0979 23.6184C37.4352 23.8944 37.6039 24.0324 37.7854 24.0904C38.0159 24.164 38.2652 24.1516 38.4873 24.0554C38.6621 23.9796 38.8162 23.8255 39.1243 23.5174L40.0179 22.6238C40.326 22.3157 40.48 22.1617 40.5558 21.9869C40.652 21.7648 40.6645 21.5154 40.5908 21.2848C40.5328 21.1034 40.3949 20.9348 40.119 20.5976C39.5968 19.9593 39.3357 19.6402 39.2979 19.3596C39.2499 19.0034 39.3967 18.6489 39.6825 18.4309C39.9077 18.2592 40.318 18.2182 41.1386 18.1361C41.5722 18.0928 41.789 18.0711 41.9583 17.9838C42.1734 17.8729 42.341 17.6877 42.43 17.4626C42.5 17.2855 42.5 17.0676 42.5 16.6319V15.3682C42.5 14.9324 42.5 14.7145 42.4299 14.5373C42.341 14.3123 42.1734 14.1272 41.9584 14.0162C41.7891 13.9289 41.5722 13.9072 41.1385 13.8639C40.3176 13.7818 39.9072 13.7407 39.682 13.5689C39.3964 13.351 39.2496 12.9966 39.2975 12.6406C39.3352 12.3598 39.5964 12.0406 40.1188 11.4021C40.3948 11.0648 40.5328 10.8961 40.5908 10.7146C40.6644 10.4841 40.652 10.2348 40.5558 10.0128C40.48 9.83794 40.3259 9.68385 40.0178 9.37567L39.1243 8.4822C38.8161 8.17402 38.662 8.01994 38.4872 7.94419C38.2652 7.84798 38.0158 7.83555 37.7853 7.90918C37.6038 7.96716 37.4352 8.10515 37.0979 8.38113C36.4594 8.90352 36.1402 9.16472 35.8595 9.20248C35.5034 9.25038 35.149 9.10358 34.9311 8.81793C34.7593 8.59274 34.7182 8.1823 34.6361 7.36144Z" fill="#D9DBE5"/>
<circle cx="32.5" cy="16" r="3" fill="black"/>
</svg>
