<svg width="30" height="31" viewBox="0 0 30 31" fill="none" xmlns="http://www.w3.org/2000/svg">
<path d="M14.167 23C12.7862 23 11.667 21.8808 11.667 20.5V17.1666C11.667 15.7858 12.7862 14.6666 14.167 14.6666C14.6695 14.6616 19.167 13.8333 19.167 10.5C19.167 8.83329 17.5003 7.16663 15.0003 7.16663C12.9662 7.16663 11.667 8.83329 11.667 9.66663C11.667 11.0475 10.5478 12.1666 9.16699 12.1666C7.78616 12.1666 6.66699 11.0475 6.66699 9.66663C6.66699 5.60163 10.4837 2.16663 15.0003 2.16663C21.667 2.16663 24.167 7.15163 24.167 11.3333C24.167 14.7875 22.2695 17.4275 18.8228 18.7666C18.0728 19.0591 17.3312 19.2558 16.667 19.3891V20.5C16.667 21.8808 15.5478 23 14.167 23Z" fill="#ABAFC6"/>
<path d="M14.167 29.6666C15.5477 29.6666 16.667 28.5473 16.667 27.1666C16.667 25.7859 15.5477 24.6666 14.167 24.6666C12.7863 24.6666 11.667 25.7859 11.667 27.1666C11.667 28.5473 12.7863 29.6666 14.167 29.6666Z" fill="#ABAFC6"/>
</svg>
