<svg width="24" height="24" viewBox="0 0 24 24" fill="none" xmlns="http://www.w3.org/2000/svg">
<path d="M15.6211 21.9961C15.8789 22.2539 16.207 22.3945 16.5938 22.3945C17.3672 22.3945 17.9883 21.7852 17.9883 21.0117C17.9883 20.625 17.8242 20.2734 17.5547 20.0039L9.35156 11.9883L17.5547 3.99609C17.8242 3.72656 17.9883 3.36328 17.9883 2.98828C17.9883 2.21484 17.3672 1.60547 16.5938 1.60547C16.207 1.60547 15.8789 1.74609 15.6211 2.00391L6.50391 10.9102C6.17578 11.2148 6.02344 11.5898 6.01172 12C6.01172 12.4102 6.17578 12.7617 6.50391 13.0781L15.6211 21.9961Z" fill="#363547"/>
</svg>
