<svg width="30" height="31" viewBox="0 0 30 31" fill="none" xmlns="http://www.w3.org/2000/svg">
<g clip-path="url(#clip0_1095_1314)">
<path d="M12.1413 23.5608C14.4863 22.1508 17.6705 20.3883 20.3905 17.6683C26.2488 11.8108 30.998 3.52664 29.8188 2.34747C28.6405 1.16914 20.3563 5.91831 14.498 11.7758C11.7771 14.4966 10.0155 17.68 8.60547 20.025L12.1413 23.5608Z" fill="#3B88C3"/>
<path d="M0.356445 29.4534C0.356445 29.4534 6.24895 30.6317 10.3739 26.5067C12.1414 24.7392 12.1414 22.3825 12.1414 22.3825L9.78395 20.025C9.78395 20.025 6.83811 20.615 5.65895 21.7934C4.48061 22.9717 3.56061 25.32 3.25228 26.4584C2.68895 28.5434 0.356445 29.4534 0.356445 29.4534Z" fill="#C1694F"/>
<path d="M14.9013 21.6066L10.5946 17.3C10.2688 16.9741 9.79631 17.0283 9.53631 17.4208L8.60047 18.8416C8.34131 19.2341 8.37464 19.7933 8.67297 20.0925L12.108 23.5283C12.4063 23.8266 12.9663 23.8591 13.3588 23.6008L14.7796 22.6641C15.173 22.405 15.2263 21.9325 14.9013 21.6066Z" fill="#CCD6DD"/>
<path d="M9.35728 27.3833C8.36478 28.0242 7.83561 27.49 8.01645 26.8758C8.20061 26.25 7.91645 25.5025 6.98561 25.6975C6.05478 25.8917 5.43895 25.4025 5.73311 24.225C6.02311 23.0642 4.82895 22.6725 4.27145 23.8625C3.78645 24.8292 3.42395 25.8283 3.25311 26.4583C2.68895 28.5442 0.356445 29.4542 0.356445 29.4542C0.356445 29.4542 5.34645 30.4408 9.35728 27.3833Z" fill="#A0041E"/>
</g>
<defs>
<clipPath id="clip0_1095_1314">
<rect width="30" height="30" fill="white" transform="translate(0 0.5)"/>
</clipPath>
</defs>
</svg>
