<svg width="101" height="24" viewBox="0 0 101 24" fill="none" xmlns="http://www.w3.org/2000/svg">
<path fill-rule="evenodd" clip-rule="evenodd" d="M23.8933 4.74624C23.1406 4.31616 22.2805 4.10112 21.3128 4.10112C20.468 4.10112 19.7 4.2624 19.0088 4.58496C18.3176 4.89216 17.7646 5.32224 17.3499 5.8752V0H14.1243V17.0496H17.3499V9.99936C17.3499 8.9856 17.6033 8.20992 18.1102 7.67232C18.6325 7.11936 19.339 6.84288 20.2299 6.84288C21.1054 6.84288 21.7966 7.11936 22.3035 7.67232C22.8104 8.20992 23.0638 8.9856 23.0638 9.99936V17.0496H26.2894V9.5616C26.2894 8.4096 26.0744 7.42656 25.6443 6.61248C25.2296 5.78304 24.6459 5.16096 23.8933 4.74624ZM54.3289 13.1098V6.93504H57.1859V4.28544H54.3289V1.12896H51.0803V4.28544H49.5596V6.93504H51.0803V13.0867C51.0803 15.7286 52.4396 17.0496 55.1584 17.0496H57.1859V14.3309H55.6883C55.1968 14.3309 54.8435 14.2387 54.6284 14.0544C54.4288 13.8547 54.3289 13.5398 54.3289 13.1098ZM58.2157 10.6675C58.2157 9.34656 58.4845 8.19456 59.0221 7.21152C59.5597 6.21312 60.3046 5.44512 61.2569 4.90752C62.2093 4.35456 63.2998 4.07808 64.5286 4.07808C66.1107 4.07808 67.4163 4.47744 68.4454 5.27616C69.4899 6.05952 70.1888 7.16544 70.5421 8.59392H67.063C66.8787 8.04096 66.5638 7.61088 66.1184 7.30368C65.6883 6.98112 65.1507 6.81984 64.5056 6.81984C63.584 6.81984 62.8544 7.15776 62.3168 7.8336C61.7792 8.49408 61.5104 9.43872 61.5104 10.6675C61.5104 11.881 61.7792 12.8256 62.3168 13.5014C62.8544 14.1619 63.584 14.4922 64.5056 14.4922C65.8112 14.4922 66.6637 13.9085 67.063 12.7411H70.5421C70.1888 14.1235 69.4899 15.2218 68.4454 16.0358C67.4009 16.8499 66.0953 17.257 64.5286 17.257C63.2998 17.257 62.2093 16.9882 61.2569 16.4506C60.3046 15.8976 59.5597 15.1296 59.0221 14.1466C58.4845 13.1482 58.2157 11.9885 58.2157 10.6675ZM72.3752 7.18848C71.8683 8.18688 71.6149 9.3312 71.6149 10.6214C71.6149 11.927 71.8683 13.0867 72.3752 14.1005C72.8974 15.0989 73.5963 15.8746 74.4718 16.4275C75.3627 16.9805 76.3457 17.257 77.4209 17.257C78.3733 17.257 79.2104 17.065 79.9323 16.681C80.6696 16.2816 81.2456 15.7824 81.6603 15.1834V17.0496H84.9089V4.28544H81.6603V6.1056C81.2302 5.52192 80.6542 5.03808 79.9323 4.65408C79.2257 4.27008 78.3963 4.07808 77.444 4.07808C76.3534 4.07808 75.3627 4.34688 74.4718 4.88448C73.5963 5.42208 72.8974 6.19008 72.3752 7.18848ZM81.1995 8.66304C81.5067 9.216 81.6603 9.88416 81.6603 10.6675C81.6603 11.4509 81.5067 12.1267 81.1995 12.695C80.8923 13.248 80.4776 13.6781 79.9553 13.9853C79.4331 14.2771 78.8725 14.423 78.2734 14.423C77.6897 14.423 77.1368 14.2694 76.6145 13.9622C76.1077 13.655 75.6929 13.2173 75.3704 12.649C75.0632 12.0653 74.9096 11.3894 74.9096 10.6214C74.9096 9.85344 75.0632 9.19296 75.3704 8.64C75.6929 8.07168 76.1077 7.6416 76.6145 7.34976C77.1214 7.05792 77.6744 6.912 78.2734 6.912C78.8725 6.912 79.4331 7.0656 79.9553 7.3728C80.4776 7.66464 80.8923 8.09472 81.1995 8.66304ZM92.5291 4.67712C91.8071 5.06112 91.2388 5.54496 90.8241 6.12864V4.28544H87.5985V23.1322H90.8241V15.2294C91.2695 15.8131 91.8455 16.297 92.5521 16.681C93.274 17.065 94.1035 17.257 95.0404 17.257C96.131 17.257 97.114 16.9805 97.9895 16.4275C98.8804 15.8746 99.5793 15.0989 100.086 14.1005C100.608 13.0867 100.87 11.927 100.87 10.6214C100.87 9.31584 100.608 8.17152 100.086 7.18848C99.5793 6.19008 98.8804 5.42208 97.9895 4.88448C97.114 4.34688 96.131 4.07808 95.0404 4.07808C94.1035 4.07808 93.2663 4.27776 92.5291 4.67712ZM97.091 8.64C97.4136 9.19296 97.5748 9.85344 97.5748 10.6214C97.5748 11.4048 97.4136 12.0806 97.091 12.649C96.7838 13.2173 96.3691 13.655 95.8468 13.9622C95.3399 14.2694 94.787 14.423 94.1879 14.423C93.6043 14.423 93.0513 14.2771 92.5291 13.9853C92.0222 13.6781 91.6075 13.2403 91.2849 12.672C90.9777 12.1037 90.8241 11.4355 90.8241 10.6675C90.8241 9.89952 90.9777 9.23136 91.2849 8.66304C91.6075 8.09472 92.0222 7.66464 92.5291 7.3728C93.0513 7.0656 93.6043 6.912 94.1879 6.912C94.787 6.912 95.3399 7.05792 95.8468 7.34976C96.3691 7.6416 96.7838 8.07168 97.091 8.64ZM44.9448 6.26688C45.3595 5.59104 45.8971 5.06112 46.5576 4.67712C47.2334 4.29312 48.0014 4.10112 48.8616 4.10112V7.488H48.0091C46.9954 7.488 46.2274 7.72608 45.7051 8.20224C45.1982 8.6784 44.9448 9.50784 44.9448 10.6906V17.0496H41.7192V4.28544H44.9448V6.26688ZM6.09773 17.2109C4.97645 17.2109 3.96269 17.0189 3.05645 16.6349C2.16557 16.2509 1.45901 15.6979 0.936771 14.976C0.414531 14.2541 0.145731 13.4016 0.130371 12.4186H3.58637C3.63245 13.079 3.86285 13.6013 4.27757 13.9853C4.70765 14.3693 5.29133 14.5613 6.02861 14.5613C6.78125 14.5613 7.37261 14.3846 7.80269 14.0314C8.23277 13.6627 8.44781 13.1866 8.44781 12.6029C8.44781 12.1267 8.30189 11.735 8.01005 11.4278C7.71821 11.1206 7.34957 10.8826 6.90413 10.7136C6.47405 10.5293 5.87501 10.3296 5.10701 10.1146C4.06253 9.80736 3.21005 9.50784 2.54957 9.216C1.90445 8.9088 1.34381 8.45568 0.867651 7.85664C0.406851 7.24224 0.176451 6.42816 0.176451 5.4144C0.176451 4.46208 0.414531 3.63264 0.890691 2.92608C1.36685 2.21952 2.03501 1.68192 2.89517 1.31328C3.75533 0.92928 4.73837 0.73728 5.84429 0.73728C7.50317 0.73728 8.84717 1.14432 9.87629 1.9584C10.9208 2.75712 11.4968 3.8784 11.6043 5.32224H8.05613C8.02541 4.76928 7.78733 4.31616 7.34189 3.96288C6.91181 3.59424 6.33581 3.40992 5.61389 3.40992C4.98413 3.40992 4.47725 3.5712 4.09325 3.89376C3.72461 4.21632 3.54029 4.6848 3.54029 5.2992C3.54029 5.72928 3.67853 6.09024 3.95501 6.38208C4.24685 6.65856 4.60013 6.88896 5.01485 7.07328C5.44493 7.24224 6.04397 7.44192 6.81197 7.67232C7.85645 7.97952 8.70893 8.28672 9.36941 8.59392C10.0299 8.90112 10.5982 9.36192 11.0744 9.97632C11.5505 10.5907 11.7886 11.3971 11.7886 12.3955C11.7886 13.2557 11.5659 14.0544 11.1205 14.7917C10.675 15.529 10.0222 16.1203 9.16205 16.5658C8.30189 16.9958 7.28045 17.2109 6.09773 17.2109ZM34.0694 17.5296C37.6482 17.5296 40.5494 14.6284 40.5494 11.0496C40.5494 7.47077 37.6482 4.56958 34.0694 4.56958C30.4906 4.56958 27.5894 7.47077 27.5894 11.0496C27.5894 14.6284 30.4906 17.5296 34.0694 17.5296Z" fill="url(#paint0_linear_1194_3785)"/>
<path d="M36.3394 11.067C36.6727 11.2594 36.6727 11.7406 36.3394 11.933L33.3394 13.6651C33.006 13.8575 32.5894 13.617 32.5894 13.2321L32.5894 9.76795C32.5894 9.38305 33.006 9.14249 33.3394 9.33494L36.3394 11.067Z" fill="white"/>
<defs>
<linearGradient id="paint0_linear_1194_3785" x1="0.130371" y1="11.5661" x2="100.87" y2="11.5661" gradientUnits="userSpaceOnUse">
<stop stop-color="#3C66FC"/>
<stop offset="1" stop-color="#41DBD2"/>
</linearGradient>
</defs>
</svg>
