<svg width="30" height="31" viewBox="0 0 30 31" fill="none" xmlns="http://www.w3.org/2000/svg">
<g clip-path="url(#clip0_1095_1329)">
<path d="M9.68852 6.73964C9.59518 6.83297 9.52435 6.94547 9.46518 7.0688L9.45852 7.06214L0.111851 28.1171L0.121018 28.1263C-0.0523158 28.4621 0.237684 29.1455 0.831851 29.7405C1.42602 30.3346 2.10935 30.6246 2.44518 30.4513L2.45352 30.4596L23.5085 21.1121L23.5019 21.1046C23.6243 21.0463 23.7369 20.9755 23.831 20.8805C25.1327 19.5788 23.0219 15.358 19.1177 11.453C15.2119 7.54797 10.991 5.43797 9.68852 6.73964Z" fill="#DD2E44"/>
<path d="M10.8335 10.4999L0.346851 27.5882L0.111851 28.1174L0.121018 28.1265C-0.0523158 28.4624 0.237684 29.1457 0.831851 29.7407C1.02518 29.934 1.22602 30.0807 1.42268 30.2049L14.1669 14.6665L10.8335 10.4999Z" fill="#EA596E"/>
<path d="M19.1772 11.3878C23.0689 15.2811 25.2297 19.4311 24.0014 20.6578C22.7739 21.8861 18.6239 19.7261 14.7297 15.8344C10.8372 11.9411 8.67721 7.78943 9.90471 6.56193C11.133 5.33443 15.283 7.49443 19.1772 11.3878Z" fill="#A0041E"/>
<path d="M15.4915 11.8407C15.3257 11.9748 15.109 12.0448 14.8799 12.0198C14.1565 11.9415 13.5482 11.6898 13.1224 11.2923C12.6715 10.8715 12.449 10.3065 12.5099 9.74067C12.6165 8.74734 13.6132 7.83567 15.3124 8.01901C15.9732 8.08984 16.2682 7.87734 16.2782 7.77567C16.2899 7.67484 16.0474 7.40401 15.3865 7.33234C14.6632 7.25401 14.0549 7.00234 13.6282 6.60484C13.1774 6.18401 12.954 5.61901 13.0157 5.05317C13.124 4.05984 14.1199 3.14817 15.8174 3.33234C16.299 3.38401 16.5532 3.28484 16.6607 3.22067C16.7465 3.16817 16.7807 3.11817 16.784 3.08901C16.794 2.98817 16.5549 2.71734 15.8924 2.64567C15.4349 2.59567 15.1032 2.18567 15.154 1.72734C15.2032 1.26984 15.6124 0.939007 16.0715 0.989007C17.769 1.17151 18.549 2.27401 18.4415 3.26817C18.3332 4.26317 17.3374 5.17317 15.6382 4.99067C15.1565 4.93817 14.9049 5.03817 14.7965 5.10234C14.7107 5.15401 14.6757 5.20484 14.6724 5.23317C14.6615 5.33484 14.9024 5.60484 15.5649 5.67651C17.2624 5.85984 18.0424 6.96151 17.9349 7.95567C17.8274 8.94901 16.8315 9.86067 15.1332 9.67651C14.6515 9.62484 14.3982 9.72484 14.2899 9.78817C14.2032 9.84151 14.1699 9.89151 14.1665 9.91984C14.1557 10.0207 14.3965 10.2915 15.0582 10.3632C15.5149 10.4132 15.8474 10.824 15.7965 11.2815C15.7732 11.5098 15.6574 11.7073 15.4915 11.8407Z" fill="#AA8DD8"/>
<path d="M25.5511 19.5474C27.1953 19.0832 28.3295 19.8166 28.5995 20.7791C28.8695 21.7407 28.2845 22.9582 26.6411 23.4207C25.9995 23.6007 25.807 23.9074 25.8328 24.0049C25.8611 24.1032 26.187 24.2649 26.827 24.0841C28.4703 23.6216 29.6045 24.3549 29.8745 25.3166C30.1461 26.2791 29.5595 27.4949 27.9153 27.9582C27.2745 28.1382 27.0811 28.4457 27.1095 28.5432C27.137 28.6407 27.462 28.8024 28.1028 28.6224C28.5445 28.4982 29.0061 28.7557 29.1303 29.1982C29.2536 29.6416 28.9961 30.1016 28.5528 30.2266C26.9103 30.6891 25.7753 29.9574 25.5036 28.9941C25.2336 28.0324 25.8195 26.8166 27.4645 26.3532C28.1061 26.1724 28.2986 25.8666 28.2703 25.7682C28.2436 25.6707 27.9186 25.5082 27.2786 25.6882C25.6336 26.1516 24.5003 25.4199 24.2295 24.4557C23.9586 23.4941 24.5445 22.2782 26.1886 21.8141C26.8286 21.6349 27.0211 21.3266 26.9945 21.2299C26.9661 21.1316 26.642 20.9699 26.0011 21.1499C25.5578 21.2749 25.0986 21.0166 24.9736 20.5741C24.8495 20.1324 25.1078 19.6724 25.5511 19.5474Z" fill="#77B255"/>
<path d="M19.167 17.3C18.922 17.3 18.6804 17.1925 18.5154 16.9875C18.2279 16.6275 18.287 16.1034 18.6454 15.8159C18.827 15.67 23.1604 12.2667 29.2845 13.1425C29.7404 13.2075 30.057 13.6292 29.992 14.085C29.927 14.54 29.5087 14.86 29.0487 14.7917C23.6379 14.0234 19.7262 17.0867 19.6879 17.1175C19.5329 17.2409 19.3495 17.3 19.167 17.3Z" fill="#AA8DD8"/>
<path d="M4.79465 13.8333C4.71548 13.8333 4.63465 13.8216 4.55465 13.7983C4.11382 13.6658 3.86382 13.2016 3.99632 12.7608C4.94048 9.61662 5.79632 4.59912 4.74465 3.29079C4.62715 3.14245 4.44965 2.99662 4.04298 3.02745C3.26132 3.08745 3.33548 4.73662 3.33632 4.75329C3.37132 5.21245 3.02632 5.61245 2.56798 5.64662C2.10215 5.67495 1.70882 5.33662 1.67465 4.87745C1.58882 3.72829 1.94632 1.51495 3.91798 1.36579C4.79798 1.29912 5.52882 1.60495 6.04465 2.24662C8.02048 4.70579 6.01465 11.835 5.59298 13.24C5.48465 13.6008 5.15298 13.8333 4.79465 13.8333Z" fill="#77B255"/>
<path d="M21.25 9.6665C21.9404 9.6665 22.5 9.10686 22.5 8.4165C22.5 7.72615 21.9404 7.1665 21.25 7.1665C20.5596 7.1665 20 7.72615 20 8.4165C20 9.10686 20.5596 9.6665 21.25 9.6665Z" fill="#5C913B"/>
<path d="M1.66667 17.1665C2.58714 17.1665 3.33333 16.4203 3.33333 15.4998C3.33333 14.5793 2.58714 13.8331 1.66667 13.8331C0.746192 13.8331 0 14.5793 0 15.4998C0 16.4203 0.746192 17.1665 1.66667 17.1665Z" fill="#9266CC"/>
<path d="M27.083 17.9999C27.7734 17.9999 28.333 17.4402 28.333 16.7499C28.333 16.0595 27.7734 15.4999 27.083 15.4999C26.3927 15.4999 25.833 16.0595 25.833 16.7499C25.833 17.4402 26.3927 17.9999 27.083 17.9999Z" fill="#5C913B"/>
<path d="M19.583 27.9999C20.2734 27.9999 20.833 27.4402 20.833 26.7499C20.833 26.0595 20.2734 25.4999 19.583 25.4999C18.8927 25.4999 18.333 26.0595 18.333 26.7499C18.333 27.4402 18.8927 27.9999 19.583 27.9999Z" fill="#5C913B"/>
<path d="M23.3337 5.49984C24.2541 5.49984 25.0003 4.75365 25.0003 3.83317C25.0003 2.9127 24.2541 2.1665 23.3337 2.1665C22.4132 2.1665 21.667 2.9127 21.667 3.83317C21.667 4.75365 22.4132 5.49984 23.3337 5.49984Z" fill="#FFCC4D"/>
<path d="M27.083 8.83313C27.7734 8.83313 28.333 8.27349 28.333 7.58313C28.333 6.89277 27.7734 6.33313 27.083 6.33313C26.3927 6.33313 25.833 6.89277 25.833 7.58313C25.833 8.27349 26.3927 8.83313 27.083 8.83313Z" fill="#FFCC4D"/>
<path d="M24.583 12.1665C25.2734 12.1665 25.833 11.6069 25.833 10.9165C25.833 10.2261 25.2734 9.6665 24.583 9.6665C23.8927 9.6665 23.333 10.2261 23.333 10.9165C23.333 11.6069 23.8927 12.1665 24.583 12.1665Z" fill="#FFCC4D"/>
<path d="M6.25 21.3331C6.94036 21.3331 7.5 20.7735 7.5 20.0831C7.5 19.3928 6.94036 18.8331 6.25 18.8331C5.55964 18.8331 5 19.3928 5 20.0831C5 20.7735 5.55964 21.3331 6.25 21.3331Z" fill="#FFCC4D"/>
</g>
<defs>
<clipPath id="clip0_1095_1329">
<rect width="30" height="30" fill="white" transform="translate(0 0.5)"/>
</clipPath>
</defs>
</svg>
