<svg width="196" height="203" viewBox="0 0 196 203" fill="none" xmlns="http://www.w3.org/2000/svg">
<ellipse cx="134.556" cy="60.48" rx="60.48" ry="60.48" fill="#205FFF"/>
<path d="M118.452 87.5392C131.29 91.0525 135.503 107.151 126.031 116.503L60.6053 181.1C51.1424 190.442 35.1143 186.043 31.7476 173.178L8.49247 84.3132C5.12584 71.4483 16.9441 59.7612 29.7706 63.2713L118.452 87.5392Z" fill="#41DBD2"/>
<mask id="mask0_1086_2288" style="mask-type:alpha" maskUnits="userSpaceOnUse" x="74" y="0" width="122" height="121">
<ellipse cx="134.556" cy="60.48" rx="60.48" ry="60.48" fill="#205FFF"/>
</mask>
<g mask="url(#mask0_1086_2288)">
<g filter="url(#filter0_d_1086_2288)">
<path d="M118.452 87.5396C131.29 91.0529 135.503 107.152 126.031 116.503L60.6053 181.1C51.1424 190.443 35.1143 186.043 31.7476 173.178L8.49247 84.3135C5.12584 71.4487 16.9441 59.7616 29.7706 63.2716L118.452 87.5396Z" fill="white"/>
</g>
</g>
<defs>
<filter id="filter0_d_1086_2288" x="7.91162" y="26.64" width="168.869" height="166.654" filterUnits="userSpaceOnUse" color-interpolation-filters="sRGB">
<feFlood flood-opacity="0" result="BackgroundImageFix"/>
<feColorMatrix in="SourceAlpha" type="matrix" values="0 0 0 0 0 0 0 0 0 0 0 0 0 0 0 0 0 0 127 0" result="hardAlpha"/>
<feOffset dx="24" dy="-14.4"/>
<feGaussianBlur stdDeviation="10.8"/>
<feComposite in2="hardAlpha" operator="out"/>
<feColorMatrix type="matrix" values="0 0 0 0 0 0 0 0 0 0.130363 0 0 0 0 0.461445 0 0 0 0.4 0"/>
<feBlend mode="normal" in2="BackgroundImageFix" result="effect1_dropShadow_1086_2288"/>
<feBlend mode="normal" in="SourceGraphic" in2="effect1_dropShadow_1086_2288" result="shape"/>
</filter>
</defs>
</svg>
