<svg width="30" height="31" viewBox="0 0 30 31" fill="none" xmlns="http://www.w3.org/2000/svg">
<g clip-path="url(#clip0_1095_1262)">
<path d="M13.7688 0.693359C15.6404 0.693359 17.7954 1.83919 19.3546 3.40086C20.9154 4.96253 22.5004 6.67336 22.5004 8.39919V22.7359L9.18878 22.7617V8.48503C9.11128 7.23003 10.0846 0.693359 13.7688 0.693359Z" fill="#EA596E"/>
<path d="M15.833 9.98169V23.8334C15.833 24.7534 16.5797 23.8334 17.4997 23.8334V25.5C18.4197 25.5 19.1663 24.7534 19.1663 23.8334V10.7775C18.118 10.6909 16.958 10.5592 15.833 9.98169Z" fill="#DD2E44"/>
<path d="M18.3937 3.37909C20.6137 5.37159 21.9578 7.74243 20.8612 8.96159C19.7662 10.1808 16.6445 9.78743 14.427 7.79492C12.2095 5.80326 11.2995 3.19826 12.3945 1.97909C13.4912 0.759924 16.1762 1.38576 18.3937 3.37909Z" fill="#F4ABBA"/>
<path d="M25.0003 28.8334C25.0003 29.7534 24.2537 30.5001 23.3337 30.5001H8.33366C7.41366 30.5001 6.66699 29.7534 6.66699 28.8334V23.8334C6.66699 22.9134 7.41366 22.1667 8.33366 22.1667H23.3337C24.2537 22.1667 25.0003 22.9134 25.0003 23.8334V28.8334Z" fill="#FFCC4D"/>
<path d="M25.833 28.8333C25.833 29.7533 25.0863 30.4999 24.1663 30.4999H7.49967C6.57967 30.4999 5.83301 29.7533 5.83301 28.8333V27.9999C5.83301 27.0799 6.57967 26.3333 7.49967 26.3333H24.1663C25.0863 26.3333 25.833 27.0799 25.833 27.9999V28.8333Z" fill="#FFAC33"/>
</g>
<defs>
<clipPath id="clip0_1095_1262">
<rect width="30" height="30" fill="white" transform="translate(0 0.5)"/>
</clipPath>
</defs>
</svg>
