<svg width="195" height="203" viewBox="0 0 195 203" fill="none" xmlns="http://www.w3.org/2000/svg">
<ellipse cx="133.636" cy="60.48" rx="60.48" ry="60.48" fill="#0C3EEF"/>
<path d="M117.532 87.5392C130.37 91.0525 134.583 107.151 125.111 116.503L59.6854 181.1C50.2225 190.442 34.1944 186.043 30.8277 173.178L7.57255 84.3132C4.20592 71.4483 16.0242 59.7612 28.8507 63.2713L117.532 87.5392Z" fill="#41DBD2"/>
<mask id="mask0_1190_1008" style="mask-type:alpha" maskUnits="userSpaceOnUse" x="73" y="0" width="122" height="121">
<ellipse cx="133.636" cy="60.48" rx="60.48" ry="60.48" fill="#0C3EEF"/>
</mask>
<g mask="url(#mask0_1190_1008)">
<g filter="url(#filter0_d_1190_1008)">
<path d="M117.532 87.5397C130.37 91.053 134.583 107.152 125.111 116.503L59.6854 181.1C50.2225 190.443 34.1944 186.043 30.8277 173.178L7.57255 84.3136C4.20592 71.4488 16.0242 59.7617 28.8507 63.2717L117.532 87.5397Z" fill="white"/>
</g>
</g>
<defs>
<filter id="filter0_d_1190_1008" x="6.9917" y="26.6401" width="168.869" height="166.654" filterUnits="userSpaceOnUse" color-interpolation-filters="sRGB">
<feFlood flood-opacity="0" result="BackgroundImageFix"/>
<feColorMatrix in="SourceAlpha" type="matrix" values="0 0 0 0 0 0 0 0 0 0 0 0 0 0 0 0 0 0 127 0" result="hardAlpha"/>
<feOffset dx="24" dy="-14.4"/>
<feGaussianBlur stdDeviation="10.8"/>
<feComposite in2="hardAlpha" operator="out"/>
<feColorMatrix type="matrix" values="0 0 0 0 0 0 0 0 0 0.130363 0 0 0 0 0.461445 0 0 0 0.4 0"/>
<feBlend mode="normal" in2="BackgroundImageFix" result="effect1_dropShadow_1190_1008"/>
<feBlend mode="normal" in="SourceGraphic" in2="effect1_dropShadow_1190_1008" result="shape"/>
</filter>
</defs>
</svg>
