<svg width="30" height="31" viewBox="0 0 30 31" fill="none" xmlns="http://www.w3.org/2000/svg">
<g clip-path="url(#clip0_1095_1299)">
<path d="M18.333 2.16667H11.6663C11.208 2.16667 10.833 1.79167 10.833 1.33333C10.833 0.875 11.208 0.5 11.6663 0.5H18.333C18.7913 0.5 19.1663 0.875 19.1663 1.33333C19.1663 1.79167 18.7913 2.16667 18.333 2.16667Z" fill="#292F33"/>
<path d="M10.833 1.33337H12.4997V3.00004H10.833V1.33337ZM17.4997 1.33337H19.1663V3.00004H17.4997V1.33337Z" fill="#292F33"/>
<path d="M10.833 3H12.4997V8H10.833V3ZM17.4997 3H19.1663V8H17.4997V3Z" fill="#CCD6DD"/>
<path d="M5.83333 21.3333C5.375 21.3333 5 20.9583 5 20.5V15.5C5 15.0416 5.375 14.6666 5.83333 14.6666C6.29167 14.6666 6.66667 15.0416 6.66667 15.5V20.5C6.66667 20.9583 6.29167 21.3333 5.83333 21.3333ZM8.33333 29H7.5C7.04167 29 6.66667 28.625 6.66667 28.1666V27.3333C6.66667 26.875 7.04167 26.5 7.5 26.5H8.33333C8.79167 26.5 9.16667 26.875 9.16667 27.3333V28.1666C9.16667 28.625 8.79167 29 8.33333 29ZM22.5 29H21.6667C21.2083 29 20.8333 28.625 20.8333 28.1666V27.3333C20.8333 26.875 21.2083 26.5 21.6667 26.5H22.5C22.9583 26.5 23.3333 26.875 23.3333 27.3333V28.1666C23.3333 28.625 22.9583 29 22.5 29Z" fill="#292F33"/>
<path d="M22.4997 28H7.49967C6.58301 28 5.83301 27.25 5.83301 26.3333V8.83329C5.83301 7.91663 6.58301 7.16663 7.49967 7.16663H22.4997C23.4163 7.16663 24.1663 7.91663 24.1663 8.83329V26.3333C24.1663 27.25 23.4163 28 22.4997 28Z" fill="#4289C1"/>
<path d="M21.6667 15.5H8.33333C7.875 15.5 7.5 15.125 7.5 14.6667V9.66671C7.5 9.20837 7.875 8.83337 8.33333 8.83337H21.6667C22.125 8.83337 22.5 9.20837 22.5 9.66671V14.6667C22.5 15.125 22.125 15.5 21.6667 15.5ZM21.6667 26.3334H8.33333C7.875 26.3334 7.5 25.9584 7.5 25.5V17.1667C7.5 16.7084 7.875 16.3334 8.33333 16.3334H21.6667C22.125 16.3334 22.5 16.7084 22.5 17.1667V25.5C22.5 25.9584 22.125 26.3334 21.6667 26.3334Z" fill="#5DADEC"/>
<path d="M7.50033 30.5C7.96056 30.5 8.33366 30.1269 8.33366 29.6667C8.33366 29.2065 7.96056 28.8334 7.50033 28.8334C7.04009 28.8334 6.66699 29.2065 6.66699 29.6667C6.66699 30.1269 7.04009 30.5 7.50033 30.5Z" fill="#292F33"/>
<path d="M22.5003 30.5C22.9606 30.5 23.3337 30.1269 23.3337 29.6667C23.3337 29.2065 22.9606 28.8334 22.5003 28.8334C22.0401 28.8334 21.667 29.2065 21.667 29.6667C21.667 30.1269 22.0401 30.5 22.5003 30.5Z" fill="#292F33"/>
<path d="M21.2497 10.5H8.74967C8.52051 10.5 8.33301 10.3125 8.33301 10.0833C8.33301 9.85413 8.52051 9.66663 8.74967 9.66663H21.2497C21.4788 9.66663 21.6663 9.85413 21.6663 10.0833C21.6663 10.3125 21.4788 10.5 21.2497 10.5ZM21.2497 18H8.74967C8.52051 18 8.33301 17.8125 8.33301 17.5833C8.33301 17.3541 8.52051 17.1666 8.74967 17.1666H21.2497C21.4788 17.1666 21.6663 17.3541 21.6663 17.5833C21.6663 17.8125 21.4788 18 21.2497 18Z" fill="#2A6797"/>
<path d="M9.58301 10.5H8.74967C8.52051 10.5 8.33301 10.3125 8.33301 10.0833C8.33301 9.85413 8.52051 9.66663 8.74967 9.66663H9.58301C9.81217 9.66663 9.99967 9.85413 9.99967 10.0833C9.99967 10.3125 9.81217 10.5 9.58301 10.5ZM9.58301 18H8.74967C8.52051 18 8.33301 17.8125 8.33301 17.5833C8.33301 17.3541 8.52051 17.1666 8.74967 17.1666H9.58301C9.81217 17.1666 9.99967 17.3541 9.99967 17.5833C9.99967 17.8125 9.81217 18 9.58301 18Z" fill="#F5F8FA"/>
</g>
<defs>
<clipPath id="clip0_1095_1299">
<rect width="30" height="30" fill="white" transform="translate(0 0.5)"/>
</clipPath>
</defs>
</svg>
